<svg id="Layer_1" data-name="Layer 1" xmlns="http://www.w3.org/2000/svg" viewBox="0 0 85 23"><defs><style>.cls-1{fill:#3c9feb;}</style></defs><path class="cls-1" d="M10.06,6.57a5.27,5.27,0,0,1,2,1.61,1.25,1.25,0,0,1,.2.6.77.77,0,0,1-.41.69.79.79,0,0,1-.49.13,1.17,1.17,0,0,1-.9-.39A4.35,4.35,0,0,0,7.05,7.77a3.94,3.94,0,0,0-2.27.58,1.72,1.72,0,0,0,0,2.94,7.47,7.47,0,0,0,2.83.89,8.09,8.09,0,0,1,3.94,1.5,3.33,3.33,0,0,1,1.19,2.59A3.41,3.41,0,0,1,12,18.39a4.54,4.54,0,0,1-2,1.44,7.4,7.4,0,0,1-2.86.52,8.82,8.82,0,0,1-3.07-.54,6,6,0,0,1-2.37-1.53.94.94,0,0,1-.26-.59,1,1,0,0,1,.42-.77,1,1,0,0,1,.64-.23,1,1,0,0,1,.75.36,3.94,3.94,0,0,0,1.63,1.11,6.49,6.49,0,0,0,2.26.38,4.79,4.79,0,0,0,2.71-.62,1.92,1.92,0,0,0,.92-1.62,1.84,1.84,0,0,0-.9-1.55A7.12,7.12,0,0,0,7,13.83,8.23,8.23,0,0,1,3.24,12.4,3.09,3.09,0,0,1,2,9.93,3.37,3.37,0,0,1,3.45,7,6.22,6.22,0,0,1,7.1,6a7,7,0,0,1,3,.58"/><path class="cls-1" d="M24.21,6.88a6,6,0,0,1,2.28,2.46,7.71,7.71,0,0,1,.81,3.58.86.86,0,0,1-.25.66,1,1,0,0,1-.67.25H16a5.08,5.08,0,0,0,5.26,4.74,5.88,5.88,0,0,0,1.87-.32,4.57,4.57,0,0,0,1.51-.82,1.11,1.11,0,0,1,.69-.25,1,1,0,0,1,.57.2,1,1,0,0,1,.34.7.78.78,0,0,1-.29.59,7.16,7.16,0,0,1-2.16,1.2,7.45,7.45,0,0,1-6.22-.44A6.53,6.53,0,0,1,15,16.88a7.44,7.44,0,0,1-.92-3.7,7.91,7.91,0,0,1,.86-3.72,6.42,6.42,0,0,1,2.4-2.55A6.69,6.69,0,0,1,20.83,6a6.41,6.41,0,0,1,3.38.89M17.59,9A5.26,5.26,0,0,0,16,12.18h9.44A5,5,0,0,0,24,9a4.32,4.32,0,0,0-3.17-1.21A4.54,4.54,0,0,0,17.59,9"/><path class="cls-1" d="M37.44,6.25c.43.19.64.45.64.8a.67.67,0,0,1,0,.23.83.83,0,0,1-.32.49,1.18,1.18,0,0,1-.61.13l-.8-.05a4.57,4.57,0,0,0-.62,0,4.76,4.76,0,0,0-3.15,1,3.33,3.33,0,0,0-1.23,2.68v7.71a1,1,0,0,1-.25.72,1,1,0,0,1-.73.26.9.9,0,0,1-1-1V7.1a.9.9,0,0,1,1-1,1,1,0,0,1,.73.26,1,1,0,0,1,.25.72V8.23a5.11,5.11,0,0,1,1.91-1.67A5.35,5.35,0,0,1,35.73,6a4.23,4.23,0,0,1,1.71.28"/><path class="cls-1" d="M50.11,8.47a.76.76,0,0,1,.21.54.9.9,0,0,1-.44.72.88.88,0,0,1-.49.15,1.05,1.05,0,0,1-.75-.38,5.12,5.12,0,0,0-1.7-1.28,4.93,4.93,0,0,0-2.06-.42,4.68,4.68,0,0,0-2.53.68,4.51,4.51,0,0,0-1.71,1.92A6.27,6.27,0,0,0,40,13.18a5.81,5.81,0,0,0,.65,2.75,4.89,4.89,0,0,0,1.8,1.92,5.12,5.12,0,0,0,2.66.69,4.84,4.84,0,0,0,3.32-1.11,1.14,1.14,0,0,1,.7-.28.91.91,0,0,1,.57.21.9.9,0,0,1,.36.69.73.73,0,0,1-.26.57,6.63,6.63,0,0,1-4.69,1.73,7,7,0,0,1-3.61-.94A6.76,6.76,0,0,1,39,16.83a7.36,7.36,0,0,1-.92-3.65A7.66,7.66,0,0,1,39,9.48,6.49,6.49,0,0,1,41.4,6.92,6.62,6.62,0,0,1,44.88,6a6.42,6.42,0,0,1,5.23,2.48"/><path class="cls-1" d="M63,6.93a6.83,6.83,0,0,1,2.58,2.59,7.23,7.23,0,0,1,.94,3.66v6.06a.92.92,0,0,1-.28.69,1,1,0,0,1-.72.29,1,1,0,0,1-.72-.27.94.94,0,0,1-.29-.71V17.69a6.27,6.27,0,0,1-2.29,1.95,6.7,6.7,0,0,1-3.07.71,6.78,6.78,0,0,1-6-3.52,7.36,7.36,0,0,1-.92-3.65,7.33,7.33,0,0,1,.94-3.66,6.9,6.9,0,0,1,2.58-2.59,7.54,7.54,0,0,1,7.29,0M62,17.85a5.07,5.07,0,0,0,1.87-1.92,5.5,5.5,0,0,0,.68-2.75,5.46,5.46,0,0,0-.68-2.74A5.12,5.12,0,0,0,62,8.5a5.07,5.07,0,0,0-2.65-.7,5.17,5.17,0,0,0-2.67.7,5.08,5.08,0,0,0-1.88,1.94,5.46,5.46,0,0,0-.68,2.74,5.5,5.5,0,0,0,.68,2.75,5,5,0,0,0,1.88,1.92,5.26,5.26,0,0,0,2.67.69A5.16,5.16,0,0,0,62,17.85"/><path class="cls-1" d="M71.48,1a1.33,1.33,0,0,1,.41,1,1.4,1.4,0,0,1-1.42,1.42,1.35,1.35,0,0,1-1-.41,1.39,1.39,0,0,1-.4-1,1.33,1.33,0,0,1,.41-1,1.42,1.42,0,0,1,1-.39,1.4,1.4,0,0,1,1,.39M69.78,6.4a1.05,1.05,0,0,1,1.43,0,1,1,0,0,1,.27.73V19.21a1,1,0,0,1-.27.72,1,1,0,0,1-1.72-.72V7.13a1,1,0,0,1,.29-.73"/><path class="cls-1" d="M83.32,6.25a.88.88,0,0,1,.63.8.67.67,0,0,1,0,.23.75.75,0,0,1-.32.49,1.14,1.14,0,0,1-.6.13l-.8-.05a5.5,5.5,0,0,0-3.78,1,3.36,3.36,0,0,0-1.22,2.68v7.71a1,1,0,0,1-1.7.72.94.94,0,0,1-.26-.72V7.1a.94.94,0,0,1,.26-.72,1,1,0,0,1,1.7.72V8.23a5,5,0,0,1,1.91-1.67A5.33,5.33,0,0,1,81.61,6a4.23,4.23,0,0,1,1.71.28"/></svg>